# xmcd
#
# Track frame offsets:
#      150
#      15175
#      26920
#      43710
#      59117
#      76365
#      92122
#      107647
#      125930
#      141047
# 
# Disc length: 2057 seconds
#
# Revision: 3
# Processed by: cddbd v1.5.1PL0 Copyright (c) Steve Scherf et al.
#
# Submitted via: FreeRIP 1.21
#
DISCID=8808070a
DTITLE=Martina McBride - The Way That I Am
DYEAR=1993
DGENRE=Country
TTITLE0=Heart Trouble
TTITLE1=My Baby Loves Me
TTITLE2=That Wasn't Me
TTITLE3=Independence Day
TTITLE4=Where I Used To Have A Heart
TTITLE5=Goin' To Work
TTITLE6=She Ain't Seen Nothing Yet
TTITLE7=Life #9
TTITLE8=Strangers
TTITLE9=Ashes
EXTD=
EXTT0=
EXTT1=
EXTT2=
EXTT3=
EXTT4=
EXTT5=
EXTT6=
EXTT7=
EXTT8=
EXTT9=
PLAYORDER=
